<svg fill="none" height="147" viewBox="0 0 512 147" width="512" xmlns="http://www.w3.org/2000/svg"><g fill="#39b75d"><path d="m168.97 37.4977c-6.938-4.5867-15.119-6.9278-23.433-6.7057h-28.813v88.648h17.87v-32.1283h9.985c8.42.1252 16.684-2.2746 23.728-6.8899 3.47-2.3502 6.261-5.5725 8.091-9.3432 1.831-3.7706 2.636-7.9567 2.336-12.1373 0-9.8253-3.255-16.9731-9.764-21.4436zm-13.264 31.7233c-2.951 2.3249-6.638 3.5146-10.391 3.3528h-10.721v-26.8966h10.464c3.961-.2473 7.881.9287 11.053 3.316 1.395 1.3556 2.473 3.0039 3.155 4.826.681 1.8222.95 3.7729.787 5.7116-.011 1.8287-.403 3.6349-1.152 5.3034s-1.837 3.1625-3.195 4.3868z"/><path d="m197.009 67.3787-5.417-8.1427h-9.063v60.204h17.869v-37.434c2.82-2.5717 6.076-4.6182 9.617-6.0425 2.945-1.1561 6.083-1.7437 9.248-1.7317v-14.9958c-4.663-.1955-9.309.6608-13.596 2.5055-3.111 1.5079-6.021 3.4019-8.658 5.6372z"/><path d="m245.791 59.3465h-17.87v60.1305h17.87z"/><path d="m236.801 30.7183c-1.297-.0242-2.585.2259-3.778.7339-1.194.5079-2.267 1.2623-3.149 2.2137-1.842 1.9187-2.848 4.4887-2.8 7.1478-.064 1.3548.151 2.7082.633 3.9761.481 1.2678 1.219 2.4227 2.167 3.3929.884.9465 1.958 1.6953 3.152 2.197 1.194.5016 2.48.7449 3.775.7137 1.321.0253 2.633-.2199 3.856-.7204 1.223-.5006 2.331-1.246 3.255-2.1903.989-.9464 1.764-2.0937 2.273-3.3649.508-1.2711.738-2.6365.674-4.0041 0-2.6808-1.062-5.2525-2.954-7.1516s-4.46-2.9709-7.141-2.9807z"/><path d="m293.284 57.0991c-4.013.0547-7.978.8802-11.68 2.4317-3.654 1.3513-7.036 3.3481-9.985 5.8952l-4.753-6.1899h-9.248v60.2039h17.907v-42.0026c2.033-1.4416 4.205-2.676 6.484-3.6845 2.047-.9515 4.266-1.4779 6.522-1.5475 1.265-.0678 2.53.1336 3.711.5909s2.252 1.1601 3.142 2.0619c1.761 2.1385 2.656 4.8604 2.505 7.6269v36.8449h17.87v-37.4344c.206-6.2824-1.601-12.4663-5.158-17.6486-3.464-4.753-9.211-7.1479-17.317-7.1479z"/><path d="m393.391 59.3465h-17.87v60.1305h17.87z"/><path d="m429.351 59.2361v-3.3529c-.13-2.5365.541-5.0497 1.916-7.1847.715-.9243 1.648-1.657 2.715-2.1328 1.068-.4758 2.236-.6798 3.401-.5937 1.122.0164 2.236.1774 3.316.479 1.259.368 2.49.8235 3.685 1.3632l5.121-12.7851c-1.772-1.3887-3.8-2.4153-5.969-3.0213-2.37-.8273-4.858-1.2629-7.369-1.2895-6.53-.295-12.937 1.8452-17.98 6.0057-2.352 2.118-4.199 4.7371-5.404 7.6641s-1.738 6.0872-1.559 9.2476v5.6004h-9.359v15.5484h9.359v44.6555h17.906v-44.5449h16.691l-5.011-15.659z"/><path d="m490.808 59.2361-12.38 35.7393c-2.1-5.9688-4.237-11.9008-6.447-17.8697-2.211-5.9688-4.348-11.9008-6.559-17.8696h-18.901l20.301 51.9139c1.292 3.28 1.292 6.927 0 10.206-1.265 2.81-3.484 5.081-6.263 6.411-2.94 1.627-5.98 3.067-9.101 4.311l6.19 14.738c5.546-1.42 10.755-3.924 15.327-7.369 4.494-3.141 7.996-7.5 10.096-12.564l26.233-67.6469z"/><path d="m384.364 30.7551c-1.312-.0252-2.614.2277-3.82.7421-1.207.5144-2.291 1.2786-3.181 2.2423-.926.9343-1.654 2.0454-2.141 3.2671-.488 1.2217-.724 2.529-.696 3.844-.032 1.3155.202 2.6241.69 3.8463.487 1.2223 1.218 2.333 2.147 3.2647.906.9364 1.995 1.6752 3.2 2.1698s2.499.7343 3.801.7041c1.358.0395 2.71-.1945 3.976-.6882s2.42-1.237 3.393-2.1857c.956-.9212 1.716-2.0257 2.236-3.2475.519-1.2218.787-2.5359.787-3.8635 0-1.3277-.268-2.6417-.787-3.8636-.52-1.2218-1.28-2.3263-2.236-3.2475-.957-.9773-2.106-1.7468-3.374-2.2603s-2.628-.76-3.995-.7241z"/><path d="m359.715 103.45c-1.093.299-2.22.46-3.353.479-1.161.089-2.325-.113-3.387-.589-1.062-.477-1.988-1.212-2.693-2.138-1.388-2.1306-2.071-4.6441-1.952-7.1845v-18.4224h16.027l-5.158-15.4748h-10.869v-19.3066h-17.87v18.4224h-9.358v15.5484h9.358v21.6279c-.183 3.1574.344 6.3156 1.542 9.2426 1.199 2.927 3.039 5.548 5.385 7.669 5.042 4.161 11.45 6.301 17.98 6.006 2.509-.034 4.997-.469 7.369-1.29 2.154-.614 4.169-1.64 5.932-3.021l-5.085-12.896c-1.258.53-2.55.973-3.868 1.327z"/><path d="m23.6174 47.4089c.9212-4.9741 1.5475-7.9953 1.8791-9.5428 2.0265-10.5008 0-17.6855-5.2688-18.6434-2.837-.5159-4.7529 1.2158-6.0056 6.0793-2.6529 10.0955-10.53763 40.345-10.53763 40.345l9.43223-12.6746c1.2298-1.6463 2.8095-2.9993 4.6254-3.9614 1.8158-.9621 3.8225-1.5093 5.8753-1.6021z"/><path d="m16.8748 61.631c.9988-1.3439 2.2995-2.4341 3.7971-3.1829s3.1502-1.1352 4.8246-1.128c1.9221-.0087 3.8093.5141 5.453 1.5107.3316 0 7.3689 5.3056 11.6061 8.4742h8.1058c4.9872-.0058 9.9054-1.166 14.3694-3.3897 1.9844-1.0804 3.6202-2.7034 4.7161-4.6793.512-1.1607.6032-2.4637.258-3.6844-.1724-.4867-.4452-.9317-.8007-1.3062-.3554-.3745-.7856-.6701-1.2626-.8677-1.1574-.5155-2.4187-.7552-3.6845-.7h-40.5292c-1.2951.0394-2.5646.3714-3.7131.9712-1.1486.5998-2.1465 1.4518-2.9189 2.4922l-16.285371 22.1437c-.253231.4666-.451077.9612-.589515 1.4737-.1430467.6315-.1513545 1.286-.024382 1.9208.126973.6349.386373 1.2359.761275 1.7637z"/><path d="m14.5168 78.8743c.8337-1.131 1.8823-2.0865 3.0858-2.8117 1.2034-.7253 2.5381-1.2061 3.9275-1.4148 1.3895-.2088 2.8065-.1414 4.17.1981 1.3634.3396 2.6464.9448 3.7757 1.7809l13.522 9.948c1.6816 1.1591 3.0797 2.6831 4.0898 4.4582.4712.8744.7948 1.8205.9579 2.8002 1.3106.4276 2.6537.7479 4.0161.958 2.1982.3326 4.4457.0389 6.4847-.8474 1.2323-.6456 2.1691-1.7406 2.6159-3.0581.1465-.49.1895-1.0051.126-1.5126-.0634-.5075-.2318-.9962-.4944-1.435-.6437-1.1013-1.5248-2.0453-2.5791-2.7634l-29.4758-21.6278-.5158-.3316c-.8578-.5111-1.8386-.7786-2.8371-.7737-.7467-.0093-1.4875.1328-2.1778.4178-.6902.2849-1.3156.7068-1.8382 1.2402l-.479.5895-20.227758 27.7072c-.460025.7662-.6811934 1.6522-.6352534 2.5448.0459399.8925.3569024 1.7511.8931664 2.4661z"/><path d="m40.5292 47.4089h17.2433c-.3583-.7975-.7643-1.5726-1.2158-2.3212-1.878-3.183-4.2397-6.0544-7.0005-8.5112-1.1749-1.217-2.6897-2.051-4.3464-2.3929-1.6566-.3418-3.3779-.1756-4.9385.477-1.2624.7785-2.1699 2.0204-2.528 3.4597-.3581 1.4392-.1384 2.9615.6121 4.2408z"/><path d="m66.7994 68.742c-1.179.5895-2.3949 1.0685-3.6844 1.5106-3.233 1.134-6.6038 1.828-10.0218 2.0633-1.9896 0-3.6845 0-3.6845 0l7.369 5.4899 4.3108 3.1686c1.6751 1.1818 3.0711 2.7161 4.0898 4.4951.5956 1.0404.9715 2.1918 1.1046 3.3832s.0205 2.3974-.3309 3.5436c-.8595 2.6042-2.7137 4.763-5.1583 6.0057-3.4 1.5159-7.1961 1.903-10.8323 1.1053l-2.616-.5526c-.9969 2.1243-2.6678 3.8603-4.7529 4.9373-2.9297 1.412-6.2116 1.924-9.4323 1.474-3.226-.519-6.3636-1.486-9.3217-2.874-.3258-.158-.6148-.382-.8483-.658-.2336-.276-.4063-.599-.5071-.946-.1008-.348-.1273-.713-.0779-1.0711.0495-.3584.1738-.7024.3648-1.0096.316-.4835.7894-.8429 1.3399-1.0175.5506-.1745 1.1445-.1535 1.6814.0595 2.5025 1.2063 5.1733 2.0262 7.9216 2.4317 2.1982.333 4.4457.039 6.4847-.8474 1.2209-.632 2.1465-1.7162 2.5791-3.0212.1519-.4954.1976-1.0173.1341-1.5315-.0635-.5143-.2347-1.0094-.5026-1.4529-.4635-.8294-1.0902-1.5564-1.8422-2.137l-14.1484-10.5376c-1.0973-.8154-2.4579-1.1952-3.8189-1.0659s-2.6258.7585-3.55 1.7659l-.3684.4053-17.685493 24.0223c-.643868.876-.99228037 1.935-.994807 3.022.014752.701.176508 1.391.474806 2.026.298298.634.726494 1.199 1.256894 1.658 8.04143 6.516 16.4831 12.521 25.2755 17.98.6632.443 2.6528 1.548 2.8002 1.658 5.0657 2.682 10.74 4.004 16.4692 3.838 5.7292-.165 11.3176-1.813 16.2203-4.782 4.9026-2.969 8.952-7.158 11.753-12.158 2.8011-5.001 4.2582-10.642 4.2293-16.373-.0188-4.7243-1.0227-9.3925-2.9476-13.7066-.9948-2.1001-8.6953-20.3014-8.7322-20.3014z"/><path d="m42.6293 3.96894c-.4259.01892-.8439.12166-1.2301.30233-.3862.18068-.7329.43575-1.0204.7506-.2875.31486-.51.68332-.6549 1.0843-.1449.40097-.2093.82659-.1895 1.25248 0 3.02125.4053 9.06375.5158 12.08505.0443.6758.3351 1.3118.8174 1.7872.4822.4755 1.1223.7573 1.7986.7919.7172.0302 1.4173-.2238 1.9484-.7066.5312-.4829.8505-1.1557.8886-1.8725 0-3.0213.5527-9.3585.5159-12.37981-.0141-.42752-.1135-.84792-.2926-1.23641-.179-.3885-.434-.73723-.7498-1.02566-.3159-.28842-.6864-.5107-1.0895-.65374-.4031-.14305-.8308-.20395-1.2579-.17914z"/><path d="m70.0049 12.5169c-.7297-.4579-1.6103-.6102-2.4514-.424-.8412.1861-1.5752.6958-2.0436 1.4188l-6.5584 10.1692c-.38.5919-.5166 1.3079-.381 1.9981.1355.6903.5325 1.3015 1.1081 1.7059.5757.4043 1.2853.5706 1.9806.4639.6953-.1066 1.3225-.4779 1.7505-1.0361 1.8423-2.395 5.7846-7.369 7.369-9.8376.2459-.3421.4212-.7298.5155-1.1404.0943-.4107.1058-.836.0337-1.2512-.072-.4151-.2261-.8117-.4533-1.1665-.2272-.3549-.5228-.6609-.8697-.9001z"/><path d="m87.5061 35.1765c-.3411-.7841-.9749-1.404-1.7664-1.7275-.7916-.3235-1.6781-.325-2.4708-.0042l-11.0534 4.6424c-.6315.2629-1.1411.7535-1.4277 1.3746-.2867.621-.3294 1.3272-.1197 1.9783.1048.3397.276.6553.5036.9285.2276.2731.507.4984.8223.6629.3152.1645.6599.2648 1.0141.2952.3543.0304.711-.0097 1.0497-.1181 2.8739-.9211 8.9532-2.6896 11.7903-3.6844.4055-.1629.7729-.4079 1.0792-.7196s.5448-.6834.7005-1.0917.2253-.8445.2043-1.2809c-.0209-.4365-.1319-.864-.326-1.2555z"/></g></svg>